<svg viewBox="0 0 50 45" fill="none" xmlns="http://www.w3.org/2000/svg">
<path d="M47.5 40.07L49.5 40.07L49.5 35L1.14214e-07 35L5.37548e-08 40.07L34.5 40.07C31.5 45.57 39.5 46.57 37.5 40.07C38.5769 43.57 40.5 42.07 40.5 40.07C40.5 46.07 47 45.07 44.5 40.07C46.25 43.57 48 42.07 47.5 40.07Z" fill="#08B5AC"/>
<path d="M5.4995e-08 39.7122C5.4995e-08 39.7122 33.61 39.7122 35.11 39.7122C31.61 45.5 39.11 46.2122 37.11 39.7122C38.61 43.5 40.5 41.7122 40.5 39.7122C40.5 45.7122 46.7539 45 44.11 39.7122C46.11 43.5 48.11 42 47.11 39.7122C47.61 39.7122 49.5 39.7122 49.5 39.7122" stroke="#1CC5B0" stroke-width="0.4" stroke-miterlimit="16"/>
<path d="M5.37548e-08 40.07C5.37548e-08 40.07 33 40.07 34.5 40.07C31.5 45.57 39.5 46.57 37.5 40.07C38.5769 43.57 40.5 42.07 40.5 40.07C40.5 46.07 47 45.07 44.5 40.07C46.25 43.57 48 42.07 47.5 40.07C48 40.07 49.5 40.07 49.5 40.07" stroke="#053B3B" stroke-width="0.4" stroke-miterlimit="16"/>
</svg>
