<svg viewBox="0 0 43 50" fill="none" xmlns="http://www.w3.org/2000/svg">
<path d="M3.75717 20.5C1.75717 17.7 3.75717 17.5 4.25716 18V0H8.99997V49.5H4.25716V31.5C-1.74283 32 0.257174 27 3.75717 27.5C1.78305 26.0194 3.43863 24.6749 4.22662 24.9869C-1.3352 22.5887 0.76264 19.5018 3.75717 20.5Z" fill="#08B5AC"/>
<path d="M4.51847 49.5003L4.51857 31.0003C-1.3658 31.9993 0.461393 27.0003 4.01135 27.5003C1.9828 26.0003 3.73292 24.64 4.51847 25.0003C-1.16147 22.6003 1.13638 19.4998 4.01126 21.0003C1.98272 18.2003 3.63673 17.5002 4.51838 18.5003L4.51847 0.000335693" stroke="#1CC5B0" stroke-width="0.4" stroke-miterlimit="16"/>
<path d="M4.25722 49.5V31.5C-1.74277 32 0.257235 27 3.75723 27.5C1.75723 26 3.48272 24.6397 4.25722 25C-1.3428 22.6 0.757235 19.5 3.75723 20.5C1.75723 17.7 3.75723 17.5 4.25722 18V0" stroke="#053B3B" stroke-width="0.4" stroke-miterlimit="16"/>
</svg>
