<svg viewBox="0 0 44 50" fill="none" xmlns="http://www.w3.org/2000/svg">
<path d="M39.0288 21.5V0H34V49.5H39.0288V35C39.0288 35 43.2778 35.749 39.0288 31.5C41.0288 33.5 47.0288 31.5 39.0288 28C39.0288 28 43.5288 27 39.0288 25C42.154 26.389 46.5288 21 39.0288 21.5Z" fill="#08B5AC"/>
<path d="M38.6688 49.5V34.5664C39.5 35 42.9178 35.4733 38.6688 31.2244C40.6688 33.2244 46.6688 31.5 38.6688 28C38.6688 28 43.1688 27 38.6688 25C41.794 26.389 46.1688 21.2384 38.6688 21.7384V0" stroke="#1CC5B0" stroke-width="0.4"/>
<path d="M39.0288 49.5V35C39.0288 35 43.2778 35.749 39.0288 31.5C41.0288 33.5 47.0288 31.5 39.0288 28C39.0288 28 43.5288 27 39.0288 25C42.154 26.389 46.5288 21 39.0288 21.5V0" stroke="#053B3B" stroke-width="0.4"/>
</svg>
