<svg viewBox="0 0 50 45" fill="none" xmlns="http://www.w3.org/2000/svg">
<path d="M-2.13727e-07 5.2695L12.2182 5.2695C11 2.9352 12 -0.064799 14 0.435198C15.8551 0.898975 15.5593 3.51367 15.5067 3.89006C15.6646 3.30896 18.5408 1.14938 18 4.9352C20.5 -2.0648 24 1.9352 22.5 3.9352C22.8106 3.62464 23.2754 3.41182 23.8515 3.27727C25 -1.56482 29 1.93518 28 3.93518C28.5496 2.83606 30.5 2.43518 30.5 4.93518C32.5 -2.06482 36.5 1.93518 35 3.93518C36.5 2.43518 38.5 2.43518 37.5 5.2695L49.5 5.2695L49.5 10L-4.20503e-07 10L-2.13727e-07 5.2695Z" fill="#08B5AC"/>
<path d="M-2.13727e-07 5.61951L12.61 5.61951C11.3918 3.28521 12 0.285207 14 0.785204C16 1.2852 15.5 4.2852 15.5 4.2852C15.5 3.7852 18.556 1.39287 18 5.2852C20.5 -1.7148 23.8117 2.28518 22.3117 4.28519C22.6223 3.97463 23.2754 3.76183 23.8515 3.62727C25 -1.21481 29 2.28519 28 4.28519C28.5496 3.18606 30.5 2.78519 30.5 5.28519C32.5 -1.71481 36.3001 2.28519 34.8001 4.28519C36.3001 2.78519 38.11 2.50002 37.11 5.61951L49.5 5.61951" stroke="#1CC5B0" stroke-width="0.4"/>
<path d="M-2.13727e-07 5.2695L12.2182 5.2695C11 2.9352 12 -0.064799 14 0.435198C16 0.935195 15.5 3.9352 15.5 3.9352C15.5 3.4352 18.556 1.04286 18 4.9352C20.5 -2.0648 24 1.9352 22.5 3.9352C22.8106 3.62464 23.2754 3.41182 23.8515 3.27727C25 -1.56482 29 1.93518 28 3.93518C28.5496 2.83606 30.5 2.43518 30.5 4.93518C32.5 -2.06482 36.5 1.93518 35 3.93518C36.5 2.43518 38.5 2.43518 37.5 5.2695L49.5 5.2695" stroke="#053B3B" stroke-width="0.4"/>
</svg>
