<svg viewBox="0 0 128 128" fill="none" xmlns="http://www.w3.org/2000/svg">
<path d="M116.211 127C118.828 127 121.497 126.272 123.538 124.754C125.607 123.215 127 120.878 127 117.808V10.2143C127 7.14374 125.607 4.80719 123.538 3.26767C121.497 1.74949 118.828 1.02193 116.211 1.02193H11.7895C9.172 1.02193 6.50328 1.74949 4.46236 3.26767C2.39276 4.80719 1 7.14374 1 10.2143V117.808C1 120.878 2.39276 123.215 4.46236 124.754C6.50328 126.272 9.172 127 11.7895 127H116.211Z" fill="#E23462" stroke="black" stroke-width="2"/>
<mask id="mask0" style="mask-type:alpha" maskUnits="userSpaceOnUse" x="2" y="2" width="124" height="124">
<path d="M126 117.808C126 123.269 121.105 126 116.211 126H11.7895C6.89474 126 2 123.269 2 117.808V10.2143C2 4.75272 6.89474 2.02193 11.7895 2.02193H116.211C121.105 2.02193 126 4.75272 126 10.2143V117.808Z" fill="white"/>
</mask>
<g mask="url(#mask0)">
<path d="M115.344 112.326C124.225 112.326 126.63 104.109 127 100V119.37C127 124.065 123.115 127 119.229 127H64.2775H63.7225H8.77093C4.88546 127 1 124.065 1 119.37V100C1.37004 104.109 3.77533 112.326 12.6564 112.326H63.7225H64.2775H115.344Z" fill="#BB2141"/>
<path d="M105.236 45.9167C116.877 59.9167 122.951 67.5 127 78V8.58333L124.975 1H114.853C107.092 15.3889 94.3031 44.5167 105.236 45.9167Z" fill="#BB2141"/>
</g>
<path d="M106.846 6.47174C103.508 9.05528 99.2552 12.9148 94.3419 18.2801C87.39 14.9389 76.2448 11.2007 63.9998 11.2007C51.7549 11.2007 40.6096 14.9389 33.6578 18.2801C28.7445 12.9148 24.4915 9.05529 21.1536 6.47175C19.4285 5.13645 17.9379 4.13429 16.7188 3.44018C15.5313 2.76405 14.509 2.3258 13.7456 2.21755C13.6617 2.20564 13.5681 2.19104 13.4657 2.17509C12.3336 1.99854 10.1367 1.65596 8.2269 2.96493C6.10043 4.4224 4.67798 7.62402 4.67798 13.8869V66.721C4.67798 69.6052 5.81548 73.8032 8.09706 78.4308C10.3905 83.0826 13.8787 88.2483 18.6715 93.0702C28.2698 102.727 43.0993 111 63.9998 111C84.9004 111 99.7299 102.727 109.328 93.0702C114.121 88.2483 117.609 83.0826 119.903 78.4308C122.184 73.8032 123.322 69.6052 123.322 66.721V13.8869C123.322 7.62401 121.899 4.4224 119.773 2.96492C117.863 1.65596 115.666 1.99854 114.534 2.17508C114.432 2.19104 114.338 2.20564 114.254 2.21754C113.491 2.3258 112.468 2.76405 111.281 3.44017C110.062 4.13428 108.571 5.13645 106.846 6.47174Z" fill="#E23462" stroke="black" stroke-width="2"/>
<mask id="mask1" style="mask-type:alpha" maskUnits="userSpaceOnUse" x="5" y="3" width="118" height="107">
<path d="M94.5763 19.5075C87.7816 16.1351 76.4569 12.2007 63.9998 12.2007C51.5427 12.2007 40.2181 16.1351 33.4233 19.5075C23.2312 8.26622 15.8701 3.52882 13.6052 3.20764C11.3403 2.88646 5.67798 1.52145 5.67798 13.8869V66.721C5.67798 77.4002 22.7782 110 63.9998 110C105.222 110 122.322 77.4002 122.322 66.721V13.8869C122.322 1.52144 116.659 2.88646 114.394 3.20764C112.13 3.52882 104.769 8.26622 94.5763 19.5075Z" fill="white"/>
</mask>
<g mask="url(#mask1)">
<circle cx="88.6853" cy="50.6737" r="6" fill="black"/>
<circle r="6" transform="matrix(-1 0 0 1 39.3143 50.6737)" fill="black"/>
<path d="M63.9999 61.0053C63.9999 71.7053 79.2881 71.1421 79.2881 66.6368" stroke="black" stroke-width="2" stroke-linecap="round"/>
<path d="M63.9999 61.0053C63.9999 71.7053 48.7116 71.1421 48.7116 66.6368" stroke="black" stroke-width="2" stroke-linecap="round"/>
<path d="M64 96.7701C102.493 96.7701 119.372 71.59 123 59V65.7011C123 74.8391 107.534 112 64 112C20.466 112 5 74.8391 5 65.7011V59C8.62783 71.59 25.5068 96.7701 64 96.7701Z" fill="#BB2141"/>
<ellipse rx="8" ry="3.5" transform="matrix(0.861765 0.507308 -0.511415 0.859334 24.1614 83.0595)" fill="white"/>
<ellipse cx="118" cy="22" rx="7" ry="4" transform="rotate(90 118 22)" fill="white"/>
</g>
</svg>
