<svg xmlns="http://www.w3.org/2000/svg" width="128" height="85" fill="none" xmlns:v="https://vecta.io/nano"><g clip-path="url(#A)"><path d="M129.258-.414H-.908v86.333h130.166V-.414z" fill="#afdbd2"/><path d="M64.806 41.706c-3.857 6.838-9.96 11.481-16.896 15.106-4.847 2.531-10.285 3.766-16.199 3.536-5.773-.231-11.296-1.501-16.742-3.801-3.114-1.316-6.339-2.341-9.517-3.486l-9.345-3.333c-2.621-.89-5.32-1.536-7.897-2.538-4.163-1.624-8.191-3.629-11.865-6.226-2.408-1.701-4.302-3.88-5.424-6.601-.471-1.141-1.123-2.232-1.62-3.382-1.132-2.615-1.451-5.201-.877-7.829.358-1.641.841-3.16 1.851-4.551 1.039-1.438 2.153-2.818 3.274-4.184 1.799-2.187 4.357-3.407 7.188-4.15 3.482-.913 6.385-2.654 8.841-5.061 1.557-1.523 2.398-3.53 3.569-5.314 2.617-3.988 4.903-8.181 7.63-12.109 1.961-2.824 4.671-4.839 7.298-6.963 1.093-.885 2.373-1.58 3.626-2.272 6.141-3.392 12.54-2.835 18.909 1.054 4.823 2.945 9.358 6.315 13.132 10.565 1.418 1.595 3.373 2.51 5.323 3.31.912.374 1.852.242 2.682-.105 1.392-.584 2.787-1.177 3.93-2.14 2.223-1.873 5.993-2.598 9.263.461 1.282 1.2 2.335 2.458 2.901 4.011 1.797 4.944 3.19 9.913 2.173 14.99-.23 1.151-.236 2.362-.287 3.557-.114 2.638.245 5.295.467 7.95.379 4.528-.081 8.923-1.393 13.147-.334 1.081-.978 1.971-1.593 2.881l-2.4 3.478zm-91.71-23.4c-.175.252-.341.509-.526.754-2.537 3.391-3.059 7.141-1.087 11.343.364.775.736 1.553 1.029 2.348 1.277 3.452 3.952 5.934 6.962 7.886 3.408 2.21 7.1 3.983 11.04 5.103 4.463 1.269 8.846 2.869 13.229 4.444 5.849 2.103 11.622 4.511 17.541 6.309 7.518 2.282 14.935 2.368 22.044-.126 3.037-1.065 5.593-2.776 8.243-4.406 5.573-3.428 9.52-8.301 13.009-13.562.658-.993 1.509-1.896 1.892-3.101 1.367-4.337 2.021-8.818 1.407-13.5-.544-4.146-.434-8.2.025-12.239.154-1.36.293-2.714.181-4.127-.239-2.953-1.184-5.777-2.019-8.648-.591-2.036-1.937-3.396-3.691-4.567-.792-.53-1.567-.676-2.455-.617-1.682.105-2.821 1.088-4.005 1.955-1.225.898-2.592 1.495-4.08 1.893-1.062.286-2.176.366-3.306-.033-2.461-.872-4.725-2.157-6.51-4.05a60.94 60.94 0 0 0-13.317-10.617c-2.931-1.742-6.157-2.576-9.397-2.328-2.934.224-5.645 1.212-8.048 2.72-4.744 2.987-8.552 6.837-11.425 11.55-.394.618-.75 1.26-1.066 1.921C-3.228-1.01-6.248 2.715-8.953 6.639c-.17.248-.421.442-.642.656-2.85 2.757-6.398 4.445-10.352 5.465-1.729.446-3.114 1.324-4.34 2.472-.991.931-1.803 2.002-2.616 3.074z" fill="#f7eded"/><path d="M147.541 52.572l-.262 10.983-.434 6.689c-.072 1.282-.67 2.148-1.621 2.865-3.397 2.563-6.877 4.992-10.365 7.404l-10.116 6.969-8.353 5.713-14.851 10.311c-1.413 1-2.807 1.193-4.425.845-2.539-.543-5.125-.836-7.659-1.394-2.676-.594-5.412-.757-8.074-1.431-.992-.251-1.528-.837-1.762-1.905-.497-2.286-.66-4.623-1-6.931l-2.335-14.734c-.852-4.793-1.472-9.633-2.313-14.43-.438-2.511-.577-5.043-.783-7.572-.096-1.169-.279-2.319-.428-3.477-.078-.602-.133-1.21-.168-1.817-.052-.891.294-1.543 1.002-2.036l6.024-4.262 11.131-7.532 9.252-6.443c.856-.6 1.662-.713 2.654-.273 2.57 1.142 5.266 1.892 7.914 2.797 4.304 1.471 8.65 2.791 12.862 4.587 4.642 1.979 9.38 3.694 14.049 5.598 3.007 1.23 5.948 2.616 8.811 4.151.892.476 1.296 1.136 1.328 2.121.035 1.066.008 2.136.008 3.204l-.086-.003z" fill="#ffb8ab"/><path d="M8.108 8.901c-.365.824-.624 1.545-1.062 2.168-.545.775-1.24 1.306-2.179 1.443-.631.092-1.157-.053-1.577-.6s-.666-1.151-.923-1.761c-.043-.105-.076-.209-.124-.352-.204.113-.237.314-.315.469-.266.529-.549 1.046-.984 1.449-.027.025-.05.056-.08.079-1.221.974-1.99.819-2.612-.503-.527-1.132-.792-2.345-.98-3.578-.382-2.511-.345-5.043-.296-7.569.033-1.742.202-3.478.371-5.212l.164-2.752.105-1.085c-.001-.058.021-.114.061-.157s.095-.068.153-.071c.029-.003.057 0 .085.008s.053.022.075.04.04.041.054.066.021.053.024.081c.048.389.179.755.024 1.179-.217.592-.156 1.245-.21 1.871l-.31 3.951-.05 1.151.032 6.151c.091 1.883.334 3.74 1.067 5.491a2.99 2.99 0 0 0 .45.788.61.61 0 0 0 .31.221.61.61 0 0 0 .382-.006c.622-.161 1.013-.628 1.347-1.131.298-.487.549-1.001.75-1.535.108-.265.135-.556.078-.837-.468-2.504-.518-5.037-.415-7.563.139-3.412.663-6.78 1.306-10.128.015-.075.035-.148.059-.221.07-.209.159-.408.414-.385.227.02.283.222.328.409.241.989.348 1.998.435 3.009.168 1.812.236 3.632.204 5.451-.042 1.742-.062 3.488-.421 5.201a29.97 29.97 0 0 1-1.062 3.926 2.57 2.57 0 0 0-.053 1.518c.151.59.389 1.154.707 1.674.446.754.909.923 1.738.672.563-.168 1.05-.522 1.381-1.005.536-.767.881-1.637 1.19-2.519.072-.241.059-.5-.038-.732-.641-1.94-.885-3.943-.927-5.988L6.72-1.885c-.013-1.942.21-3.861.531-5.769.046-.244.108-.485.185-.721.066-.209.199-.376.43-.393s.373.159.45.36c.114.302.228.608.315.921.372 1.409.529 2.854.666 4.304.161 1.721.083 3.452.112 5.17.02 1.801-.256 3.592-.817 5.304a2.26 2.26 0 0 0 .14 1.813c.421.85.789 1.734 1.412 2.462.135.157.266.314.421.458 1.025.981 2.185.861 3.37.434.41-.149.705-.481.951-.851a.48.48 0 0 0 .006-.586c-.92-1.36-1.214-2.942-1.526-4.52-.515-2.615-.437-5.268-.315-7.905.095-1.987.511-3.946.939-5.89a5.75 5.75 0 0 1 .175-.605c.082-.246.21-.464.487-.491s.44.164.574.382a6.4 6.4 0 0 1 .576 1.241c.8 2.301 1.253 4.681 1.477 7.113.148 1.609.098 3.217.072 4.824-.019 1.119-.283 2.197-.587 3.267-.231.807-.524 1.595-.876 2.358-.218.472-.078.67.433.66.449-.008.818-.209 1.144-.516a3.46 3.46 0 0 0 .859-1.325c.816-2.154 1.393-4.361 1.367-6.702l-.039-4.369c-.06-1.606-.173-3.211-.391-4.807-.038-.271-.089-.516-.348-.676-.21-.129-.246-.368-.249-.608.009-.517.05-1.033.123-1.545.026-.25.146-.454.414-.451.239 0 .354.192.39.418a6.7 6.7 0 0 1 .098.856c.025.998.187 1.981.274 2.973.157 1.813.305 3.63.305 5.451v2.473c.047 2.457-.54 4.78-1.382 7.048a4.05 4.05 0 0 1-1.035 1.613c-.649.596-1.367.903-2.232.545-.241-.105-.347.051-.456.203-.479.672-1.146 1.016-1.916 1.151a3.97 3.97 0 0 1-1.921-.088c-.607-.191-1.051-.637-1.448-1.117-.457-.551-.891-1.123-1.166-1.808-.159-.401-.369-.782-.606-1.274zm6.637-16.737c-.188.176-.21.353-.245.516-.457 1.936-.853 3.895-.963 5.879-.145 2.633-.184 5.28.323 7.896.241 1.241.511 2.472 1.051 3.617.105.229.189.493.447.605.187-.196.255-.418.338-.628.571-1.458 1.035-2.946 1.128-4.535.143-2.433.105-4.857-.284-7.267-.262-1.606-.599-3.194-1.144-4.726-.163-.467-.34-.926-.652-1.359v.002zM8.098 7.247c.068-.197.105-.283.129-.372a18.34 18.34 0 0 0 .698-4.812c.038-2.685 0-5.363-.463-8.015-.127-.724-.236-1.457-.58-2.187-.039.091-.071.184-.098.279-.252 1.201-.412 2.419-.479 3.644C7.208-2.09 7.262.038 7.28 2.165a14.98 14.98 0 0 0 .254 2.741c.146.741.231 1.505.564 2.341zm-5.773.43c.05-.055.094-.114.132-.177.753-2.416 1.327-4.865 1.272-7.427-.015-.671-.008-1.342 0-2.013.03-1.916-.058-3.832-.264-5.736-.036-.332-.105-.66-.152-.991l-.12.005C2.175-3.291 1.577 2.105 2.324 7.677z" fill="#ff6b54"/><g fill="#00576a"><path d="M93.703 10.155c1.166-.837 2.195-1.383 3.318-1.726a2.86 2.86 0 0 1 1.213-.146c.729.094 1.027.597.653 1.231-.332.563-.639 1.151-1.108 1.634-.851.882-1.875 1.582-3.008 2.056a3.43 3.43 0 0 1-1.449.261c-.657-.021-.988-.438-1.235-.941s0-.911.346-1.311c.419-.489.965-.829 1.27-1.058zm20.671-2.917a3.73 3.73 0 0 1 1.254-.596c.385-.105.692-.025.915.291s.181.628-.047.953a5.07 5.07 0 0 1-1.254 1.204 12.18 12.18 0 0 1-1.525.854 1.72 1.72 0 0 1-.88.18c-.567-.037-.788-.431-.514-.933.093-.168.211-.322.35-.456a14.14 14.14 0 0 1 1.701-1.496h0zm-9.783 6.114c-.508.275-1.052.674-1.708.85-.525.141-.804.046-1.051-.322s-.239-.659.144-1.078c.761-.837 1.666-1.471 2.755-1.815.42-.133.814-.145 1.084.242.241.346.216.615-.136 1.087a5.04 5.04 0 0 1-1.088 1.037h0zm4.789 3.458c-.639.476-1.299.888-2.051 1.112-.631.187-1.058.127-1.172-.175-.168-.448.158-.769.459-1.046a8.34 8.34 0 0 1 3.523-1.974c.302-.082.615-.12.794.175.162.267-.024.503-.184.732-.358.501-.87.84-1.369 1.176zm-.426-11.367c-.946.719-1.998 1.212-3.107 1.59-.298.105-.687.301-.879-.054-.153-.286.12-.554.331-.771 1.262-1.295 2.828-2.047 4.521-2.546.211-.063.46-.11.599.088.17.242-.043.441-.185.64-.322.465-.843.713-1.28 1.053zm7.203 21.956c-.577.398-1.065.723-1.629.898a2.07 2.07 0 0 1-.807.131c-.555-.054-.762-.473-.474-.963.258-.441.7-.709 1.091-1.015a5.19 5.19 0 0 1 2.566-1.101c.274-.035.563-.058.696.235.111.246-.027.462-.181.662a5.01 5.01 0 0 1-1.262 1.154h0zm7.512-9.893c.412-.286.821-.573 1.3-.739.254-.106.531-.142.803-.105.557.105.777.605.42 1.06a5.48 5.48 0 0 1-3.015 1.948c-.344.089-.658.018-.857-.266-.21-.308-.045-.595.157-.873.315-.431.768-.711 1.192-1.025zm-20.361 9.589c-.736.523-1.381 1.021-2.161 1.275-.305.099-.684.306-.891-.031-.195-.314.092-.619.331-.837 1.133-1.059 2.463-1.816 3.866-2.451a1.11 1.11 0 0 1 .24-.069c.164-.031.333-.054.445.088s.048.3-.039.444a3.16 3.16 0 0 1-.842.917l-.949.664zm-2.71-23.964a5.08 5.08 0 0 1-1.782.873c-.293.071-.631.169-.817-.118s.032-.57.242-.787a8.1 8.1 0 0 1 3.195-2.043c.027-.008.054-.015.081-.019.245-.047.511-.105.657.131.125.209-.014.409-.145.588a5.37 5.37 0 0 1-1.431 1.374h0zm-3.829 17.811l-1.968 1.082a1.96 1.96 0 0 1-.464.177c-.26.064-.576.204-.724-.095-.133-.266.074-.516.275-.705.364-.34.722-.701 1.138-.969a12.02 12.02 0 0 1 2.061-1.077 2.35 2.35 0 0 1 .555-.159c.411-.052.561.162.349.513-.301.5-.733.889-1.222 1.234zm13.908 13.31c-.503.36-.997.665-1.577.801-.275.065-.558.097-.727-.155s-.04-.523.144-.732c.727-.819 1.596-1.442 2.654-1.765.273-.083.556-.085.736.154.197.261.01.497-.157.715a4.08 4.08 0 0 1-1.073.981h0zm11.726-6.249l.926-.569a2.27 2.27 0 0 1 .946-.3c.501-.028.654.209.409.628a1.8 1.8 0 0 1-.302.392c-.693.657-1.461 1.205-2.362 1.543a1.74 1.74 0 0 1-.482.11c-.426.026-.587-.223-.392-.606.13-.245.311-.459.532-.628l.752-.529-.027-.041zm-12.124-1.581c-.515.382-1.067.756-1.729.909-.21.048-.451.12-.587-.096s-.006-.418.145-.578c.868-.919 1.878-1.634 3.09-2.033.184-.061.4-.09.526.068.158.197.015.396-.106.579-.339.49-.833.804-1.339 1.151zM88.49 11.07c-.506.36-.967.671-1.513.811-.21.054-.45.114-.605-.068s-.061-.407.072-.586c.712-.964 1.732-1.659 2.892-1.972.187-.053.395-.052.514.116.143.209.016.402-.116.582a4.52 4.52 0 0 1-1.245 1.117h0zm28.195 5.941a4.84 4.84 0 0 1-1.867.879c-.187.042-.401.084-.526-.081-.153-.198-.046-.418.105-.583.841-.931 1.839-1.605 3.079-1.867.186-.04.398-.061.495.141s-.045.358-.162.51a4.14 4.14 0 0 1-1.124 1zm-23.978 2.062c-.526.389-1.019.705-1.595.843-.19.045-.4.088-.532-.066-.16-.187-.07-.413.076-.582.736-.852 1.616-1.509 2.71-1.837.21-.062.45-.105.577.122.105.182-.013.357-.122.516a3.66 3.66 0 0 1-1.113 1.003h0zm24.637-14.987c-.535.37-1.051.703-1.657.844-.189.045-.397.091-.525-.068-.164-.197-.051-.418.105-.576.796-.837 1.703-1.514 2.845-1.805.185-.048.394-.078.497.126.083.163-.032.305-.124.44a3.73 3.73 0 0 1-1.141 1.04h0zm6.19 2.401c.426-.331.92-.566 1.447-.687.19-.04.39-.063.508.119s.013.356-.105.513c-.563.798-1.377 1.387-2.314 1.674-.241.075-.513.096-.665-.122s0-.449.148-.653c.256-.336.607-.57.981-.843zM109.968 22.23a4.34 4.34 0 0 1 1.415-.689c.19-.051.391-.065.526.093.148.179.02.349-.099.502a5.02 5.02 0 0 1-2.264 1.638c-.236.087-.511.152-.671-.074s0-.451.156-.653c.25-.338.596-.575.937-.817zm5.748-10.118c.412-.28.809-.59 1.302-.709.186-.045.394-.089.502.105.085.159-.022.304-.123.434a4.86 4.86 0 0 1-2.19 1.569c-.211.077-.45.121-.575-.105-.099-.177.015-.355.132-.512.251-.328.627-.526.952-.781z"/></g><path d="M24.747 47.678c-.264.105-.265.271-.315.404l-1.556 4.134c-.146.37-.043.673.376 1.046 1.577 1.392 3.049 2.824 4.206 4.381l.736 1.035c.115.158.194.339.23.53.078.466-.179.628-.817.458-.716-.188-1.36-.532-1.968-.904l-3.34-2.082-.413-.265c-.315-.201-.496-.176-.584.057l-.67 1.695c-.067.172-.094.367-.222.504-.364.392-.164.754.338 1.218a25.19 25.19 0 0 1 3.701 4.269c.21.308.421.616.526.942.216.666-.149.929-1.075.732-.629-.145-1.236-.371-1.806-.672l-3.286-1.641c-.526-.261-.675-.272-.834.088-.315.71-.789 1.344-1.162 2.024-.117.233-.256.454-.413.662-.279.345-.222.665.28 1.117 1.634 1.464 3.119 3.003 4.267 4.651.255.365.526.732.661 1.109.252.7-.145.977-1.109.732-.626-.155-1.237-.361-1.829-.615l-4.698-2.208c-1.082-.563-.841-.535-1.497.045-.975.865-1.998 1.688-3.223 2.369-.407.227-.841.418-1.281.628-.49.227-.487.308-.035.732l2.122 2c1.969 1.87 3.734 3.809 5.177 5.857a10.22 10.22 0 0 1 .841 1.464 1.24 1.24 0 0 1 .145.587c-.013.329-.227.442-.71.347a6.2 6.2 0 0 1-1.421-.508c-1.697-.801-3.278-1.742-4.87-2.671l-3.785-2.319c-.571-.368-.709-.353-.899.079l-.49 1.231c-.326.901-.829 1.727-1.269 2.579l-1.305 2.807c-.064.168-.064.362-.085.546-.028.219-.181.346-.514.236-.3-.105-.37-.314-.263-.461.483-.676.616-1.497 1.03-2.202.383-.633.727-1.289 1.029-1.963.438-1.012.996-1.978 1.335-3.033.196-.609.202-.59-.619-1.115l-6.22-3.939a12.01 12.01 0 0 0-1.547-.805l-1.13-.544c-.28-.143-.591-.335-.434-.551s.513-.034.789.078c.21.084.4.196.596.298 3.526 1.839 6.939 2.406 10.199 1.532.69-.185.69-.247.07-.786-1.567-1.36-3.154-2.72-4.583-4.151a21.41 21.41 0 0 1-2.272-2.604c-.47-.657-.723-1.287-.464-1.891s.793-.799 1.751-.628c.411.085.814.203 1.206.352 2.4.829 4.684 1.883 6.939 2.986.075.037.146.081.223.114.492.218.597.209.76-.128.307-.628.615-1.255.89-1.902s.472-1.278.749-1.901c.158-.354.021-.628-.411-.976a68.97 68.97 0 0 1-5.197-4.561c-.412-.389-.787-.815-1.121-1.272a2.58 2.58 0 0 1-.315-.523c-.243-.628.257-.941 1.11-.685a10.37 10.37 0 0 1 1.179.452 76.37 76.37 0 0 1 5.666 2.849c.145.081.286.165.434.242.254.131.421.094.502-.066a3.1 3.1 0 0 0 .153-.355c.405-1.067.778-2.146 1.225-3.197.198-.464.094-.824-.526-1.284-1.433-1.067-2.807-2.176-4.149-3.303a37.54 37.54 0 0 1-2.944-2.71c-.279-.29-.537-.592-.645-.914-.149-.446.105-.903 1.009-.56a30.58 30.58 0 0 1 4.298 2.043c1.344.764 2.663 1.549 3.939 2.383.502.327.612.314.767-.072.306-.77.552-1.563.898-2.316.199-.434 0-.785-.463-1.203l-3.51-3.243c-1.051-1.005-2.089-2.017-2.898-3.111-.45-.608-.75-1.204-.472-1.773.229-.471.64-.594 1.406-.333a19.37 19.37 0 0 1 1.802.708c1.815.834 3.584 1.765 5.298 2.788.909.544.938.541 1.189-.145.474-1.296 1.156-2.511 1.697-3.777.559-1.303 1.262-2.544 1.86-3.831.699-1.501 1.392-3.008 2.298-4.423.242-.375.452-.766.677-1.151.03-.068.068-.132.111-.191.158-.176.358-.355.718-.264.398.105.475.384.526.618.153.823.238 1.657.253 2.494a32.62 32.62 0 0 1-.105 3.857 35.14 35.14 0 0 1-.427 3.039c-.186 1.04-.463 2.054-.598 3.107-.098.763-.45 1.437-.574 2.197-.129.786-.382 1.54-.631 2.291-.105.314.014.523.406.797 1.682 1.167 3.364 2.339 4.927 3.595l1.151.952c.2.175.361.378.179.543-.21.191-.526.074-.796-.077-.761-.422-1.493-.895-2.19-1.415-.244-.182-.415-.395-.347-.614.058-.186-.055-.349-.261-.498-1.066-.768-2.121-1.541-3.257-2.282zm1.62-17.714c-.183-.034-.222.034-.262.095a33.81 33.81 0 0 0-2.132 3.887 161.4 161.4 0 0 1-2.328 4.707c-.8 1.561-1.344 3.185-2.058 4.761-.092.203-.025.362.243.531l3.89 2.435c.448.277.506.249.619-.095.573-1.746.999-3.54 1.396-5.342a42.15 42.15 0 0 0 .736-4.56c.212-1.85.237-3.715.077-5.57-.038-.28.005-.563-.186-.849h.004zM2.877 65.751l-.749-.314a11.03 11.03 0 0 0-1.985-.661c-.647-.137-.994-.02-1.173.389-.065.144-.094.301-.084.458s.057.31.138.445a6.85 6.85 0 0 0 .678 1.046c1.091 1.36 2.425 2.621 3.798 3.87.723.657 1.478 1.298 2.231 1.939.776.663.781.659 1.051.018a4.88 4.88 0 0 1 .21-.452c.581-1.132 1.164-2.263 1.606-3.452.21-.57.21-.591-.641-1.024-1.616-.823-3.247-1.61-5.079-2.264zm12.617 18.814c-.253-.763-.694-1.415-1.157-2.061-1.892-2.645-4.416-5.062-7-7.452-.436-.403-.568-.402-.736-.018l-1.355 3.138c-.257.613-.242.618.639 1.158.117.071.228.147.343.221 2.575 1.649 5.231 3.168 7.958 4.552a4.89 4.89 0 0 0 1.313.461h-.005zm-3.767-44.393l-.711-.262c-.841-.298-1.174-.162-1.09.46.052.38.305.746.584 1.109 1.013 1.316 2.334 2.511 3.598 3.727.824.794 1.694 1.569 2.558 2.343.375.336.513.339.64.009l1.283-3.407c.091-.242-.015-.428-.36-.628-2.091-1.223-4.186-2.436-6.502-3.353zm11.434 9.581l-.02-.007c.258-.689.493-1.387.78-2.065.145-.341.035-.602-.443-.898l-3.595-2.274c-.558-.35-.653-.341-.817.084l-1.269 3.356c-.121.309-.044.575.315.884l3.559 3.049c.421.357.545.355.689-.009.283-.702.536-1.412.8-2.119h0zm-9.166 7.966l-.677 1.806c-.091.236-.027.432.336.628l3.634 1.987c.472.256.526.246.724-.04.497-.726.736-1.563 1.195-2.301.187-.302.083-.593-.296-.93a81.17 81.17 0 0 0-3.481-2.915c-.452-.359-.618-.357-.773.018-.24.571-.444 1.162-.662 1.748h0zm5.068 15.19c.263.097.526.209.791.289.335.105.747.357.995.184s-.059-.48-.218-.722c-.804-1.209-1.727-2.335-2.754-3.363-.526-.538-1.068-1.072-1.635-1.593-.348-.314-.532-.326-.728-.067a24.27 24.27 0 0 1-1.844 2.237c-.266.276-.21.403.307.685s1.04.523 1.562.787c1.146.573 2.32 1.093 3.523 1.563zm-3.906-19.626l.176-.472c.202-.566.189-.579-.58-1.081-1.414-.919-2.839-1.828-4.362-2.636-1.125-.598-2.249-1.206-3.492-1.611-.13-.043-.279-.12-.385-.064-.147.079-.024.215.061.321a15.5 15.5 0 0 0 1.723 1.778c1.562 1.395 3.244 2.72 4.925 4.046.291.23.572.465.873.687.35.258.42.259.581.015a3.84 3.84 0 0 0 .481-.984h0zm-3.401 10.719c-.187.031-.191.154-.25.245-.751 1.16-.946 2.545-1.691 3.706-.165.256.009.473.384.665l2.137 1.111c.315.168.517.142.67-.022.197-.209.397-.418.575-.638.465-.572.938-1.139 1.367-1.73.315-.432.253-.569-.322-1.055l-2.224-1.856c-.194-.159-.367-.355-.646-.426zm.69-2.137h-.006l-.447 1.188c-.087.209 0 .405.247.61l2.861 2.346c.371.302.533.304.715.032.613-.915 1.117-1.883 1.669-2.824.15-.257.016-.424-.322-.608l-3.632-2c-.405-.223-.512-.216-.631.07-.172.386-.305.789-.454 1.185zm-.526-.408l.029.011.407-1.086c.094-.237.006-.445-.351-.634-1.445-.765-2.865-1.569-4.34-2.284-.841-.411-1.706-.832-2.629-1.123-.184-.059-.388-.157-.526-.055s-.035.251.052.386a7.98 7.98 0 0 0 1.177 1.392c1.536 1.487 3.21 2.904 4.895 4.312.105.084.21.16.315.239.27.2.455.184.537-.022.161-.375.297-.757.433-1.136h0zm4.913-10.925l-.024-.008-.421 1.137c-.155.443-.154.462.409.837l3.746 2.452c.44.286.534.282.67-.043.241-.577.445-1.168.675-1.749.1-.251 0-.475-.302-.718-.369-.296-.709-.611-1.063-.916l-2.603-2.236c-.393-.333-.477-.331-.619.009-.167.405-.309.822-.464 1.235h-.004zm2.746 8.173l1.191-2.644c.105-.246-.105-.451-.39-.643l-3.709-2.47c-.454-.299-.639-.282-.794.082-.223.523-.395 1.066-.621 1.589-.135.314 0 .569.383.868 1.011.799 2.037 1.591 2.961 2.445.26.239.575.452.984.774h-.004zm.315 1.238a.79.79 0 0 0-.141.13c-.486.773-.728 1.648-1.173 2.436-.123.218.044.381.316.509 1.406.67 2.734 1.477 4.24 1.974.355.117.802.439 1.059.259.239-.167-.105-.523-.273-.781-.962-1.501-2.224-2.91-3.621-4.281a.91.91 0 0 0-.402-.246h-.004zm2.568-6.59l-.761 2.035c-.083.217.105.377.343.531 1.537.98 3.02 2.015 4.701 2.848a3.22 3.22 0 0 0 .306.138c.154.057.326.141.449.054.097-.069.017-.178-.036-.274-.033-.059-.07-.117-.105-.176-1.184-1.822-2.834-3.477-4.676-5.064a2.2 2.2 0 0 0-.217-.097l-.004.004zm-23.791 21.38c.663.532 1.408.941 2.109 1.384l2.944 1.891c.566.359.73.353.938-.05.15-.315.282-.639.394-.969l.805-2.153c-2.19.628-4.604.492-7.191-.103zm8.397-.972c.406.061.526-.056.679-.126a15.01 15.01 0 0 0 3.31-2.067c.401-.325.759-.679 1.147-1.014.201-.173.128-.314-.196-.479-.371-.186-.731-.39-1.097-.586-1.426-.765-1.527-.749-1.952.237-.334.774-.589 1.578-1.02 2.316-.314.539-.472 1.15-.87 1.718h-.002z" fill="#007478"/><path fill="url(#A)" d="M12.646 11.78h105.458v64.645H12.646z"/><path d="M15.515 73.008l-.382-5.996-1.495-48.134a12.38 12.38 0 0 1 .088-1.862c.135-1.145.77-1.784 1.63-1.888l8.863-.77c1.892-.039 3.667.837 5.549.599 2.513-.314 5.032-.068 7.535.446a2.8 2.8 0 0 0 .607.028c3.218-.037 6.466-.459 9.648-.016 3.728.523 7.306-.814 11.003-.455 1.825.177 3.655-.549 5.475-1.041 2.139-.578 4.392-.673 6.601-.7 1.332-.017 2.685.431 4.013.775 2.445.628 4.825.07 7.206-.379 1.333-.25 2.629-.746 3.965-1.004 1.036-.202 2.061-.203 3.135.202.878.332 1.935.399 2.815.127 1.624-.502 3.237-.153 4.773.162 1.367.279 2.699.159 4.041.314 1.902.209 3.814.273 5.723.343l7.09.162 1.9 56.334c-3.611.426-4.595.868-6.84.813-.349.005-.696.046-1.037.121-.248.045-.487.199-.736.204-2.758.062-5.524.55-8.229-.797-1.348-.671-2.667-.035-3.963.484a5.14 5.14 0 0 1-1.585.355c-1.272.077-2.55.14-3.824.095-.995-.036-1.991-.209-2.98-.384-.946-.168-1.882-.426-2.824-.628a1.19 1.19 0 0 0-.599-.006l-3.424 1.151c-.288.089-.59.128-.892.116l-5.747-.198c-2.362-.013-4.723.052-7.084.121-.393.013-.778.234-1.171.336-1.928.497-3.879.44-5.837.232-.804-.086-1.639-.265-2.418-.097-2.287.494-4.521.278-6.74-.544-.841-.314-1.505-.209-2.263.419-1.416 1.161-3.094.929-4.699.767-2.418-.243-4.824-.605-7.235-.916-.05-.006-.105-.037-.15-.018-1.421.615-2.913.635-4.396.794-1.243.133-2.465.732-3.699.723-3.716-.029-7.437-.243-11.411-.39z" fill="#fff9f5"/><g fill="#efdaca"><path opacity=".85" d="M22.168 7.493l.69.781 2.769 3.365c.068.084.128.175.179.27.045.076.061.166.046.253s-.061.166-.128.223l-1.434 1.27c-.315.253-.714.364-1.01.644a6.14 6.14 0 0 1-1.334.927c-.037.022-.073.047-.105.075-.546.428-1.057.912-1.646 1.268-.691.418-1.164 1.072-1.833 1.507-.33.209-.567.556-.826.862a7.15 7.15 0 0 1-1.051.963c-.24.166-.497.307-.767.418-.484.233-.832.628-1.191.998-.202.209-.372.45-.573.66-.153.169-.344.3-.556.383a1.19 1.19 0 0 0-.494.352c-.226.283-.537.446-.833.604-.263.14-.477.332-.722.487l-1.013.703-1.229.908-3.808-4.587 1.197-.873a1.33 1.33 0 0 0 .164-.153 1.36 1.36 0 0 1 .105-.125c.465-.37.886-.801 1.489-.97.301-.084.459-.345.631-.587a1.36 1.36 0 0 1 .234-.257l.643-.515c.176-.123.36-.236.549-.338.179-.105.366-.187.548-.283.04-.018.076-.044.105-.077l.466-.609c.04-.051.087-.095.14-.133l1.003-.726 1.198-.941a1.62 1.62 0 0 0 .165-.2c.283-.312.611-.581.973-.798a2.1 2.1 0 0 0 .42-.303 3.13 3.13 0 0 1 1.208-.809c.082-.027.156-.073.215-.135a.53.53 0 0 0 .127-.22c.122-.347.432-.534.723-.723l1.331-.822c.01-.004.02-.01.028-.017.179-.272.431-.471.668-.687.199-.182.346-.425.557-.586l1.984-1.45z"/><path opacity=".8" d="M120.301 60.424l.687.787 2.756 3.381c.068.085.127.175.178.271.045.076.061.166.046.253a.38.38 0 0 1-.13.223l-1.441 1.265c-.316.252-.717.362-1.015.641a6.17 6.17 0 0 1-1.34.921 1.1 1.1 0 0 0-.105.075c-.548.426-1.062.908-1.654 1.261-.694.418-1.169 1.068-1.841 1.5-.332.209-.571.553-.831.86a7.18 7.18 0 0 1-1.061.959 4.09 4.09 0 0 1-.77.418c-.485.231-.835.62-1.197.994-.203.209-.375.448-.577.658-.154.168-.345.299-.559.381-.193.072-.364.192-.496.349-.226.282-.54.445-.836.601-.263.139-.48.329-.726.484l-1.017.699-1.235.903-3.785-4.603 1.203-.869a1.43 1.43 0 0 0 .165-.153 1.34 1.34 0 0 1 .105-.123c.467-.369.892-.798 1.495-.963.301-.083.462-.343.631-.585.066-.095.145-.182.235-.256l.646-.513a5.58 5.58 0 0 1 .552-.336c.179-.105.367-.186.549-.281a.3.3 0 0 0 .105-.077l.469-.607c.04-.051.088-.096.141-.133l1.006-.723 1.204-.941a1.45 1.45 0 0 0 .166-.199c.286-.311.615-.579.978-.795.152-.083.294-.184.421-.301.332-.364.747-.644 1.21-.817a.54.54 0 0 0 .346-.353c.123-.346.434-.532.726-.72l1.338-.817c.008-.005.022-.008.027-.017.18-.272.434-.469.672-.685.2-.18.348-.418.56-.583l1.999-1.434z"/></g></g><defs><clipPath id="A"><path fill="#fff" d="M0 0h128v85H0z"/></clipPath></defs></svg>